<svg width="37" height="38" viewBox="0 0 37 38" fill="none" xmlns="http://www.w3.org/2000/svg">
<path fill-rule="evenodd" clip-rule="evenodd" d="M0.0219727 19C0.0219727 29.1416 8.24639 37.3658 18.3883 37.3658C28.5301 37.3658 36.7545 29.1416 36.7545 19C36.7545 8.85838 28.5301 0.634155 18.3883 0.634155C8.24639 0.634155 0.0219727 8.85838 0.0219727 19ZM30.631 19.0002C30.631 17.52 29.4335 16.3225 27.9532 16.3225C27.2296 16.3225 26.5757 16.609 26.0945 17.0755C24.2652 15.7532 21.7417 14.901 18.9317 14.8018L20.1512 9.06064L24.1367 9.90915C24.1844 10.9229 25.0146 11.731 26.0394 11.731C27.0973 11.731 27.9532 10.8752 27.9532 9.81732C27.9532 8.75944 27.0973 7.90359 26.0394 7.90359C25.2864 7.90359 24.6436 8.3407 24.3314 8.97249L19.8794 8.02481C19.7545 7.9991 19.6259 8.02114 19.5194 8.09093C19.4129 8.16072 19.3394 8.26724 19.3137 8.39213L17.9766 14.6916C17.9718 14.716 17.9733 14.7387 17.975 14.762L17.975 14.762C17.9758 14.7738 17.9766 14.7858 17.9766 14.7981C15.1152 14.8716 12.5439 15.7274 10.6852 17.0682C10.204 16.6053 9.55384 16.3225 8.83388 16.3225C7.35356 16.3225 6.15608 17.5236 6.15608 19.0002C6.15608 20.0875 6.80625 21.0242 7.73925 21.4429C7.69885 21.7074 7.67681 21.9792 7.67681 22.2547C7.67681 26.376 12.4741 29.7149 18.3917 29.7149C24.3093 29.7149 29.1066 26.376 29.1066 22.2547C29.1066 21.9829 29.0846 21.7147 29.0442 21.4502C29.9735 21.0315 30.631 20.0948 30.631 19.0002ZM14.1789 18.9999C13.1247 18.9999 12.2651 19.8594 12.2651 20.9136C12.2651 21.9678 13.1247 22.8273 14.1789 22.8273C15.2331 22.8273 16.0927 21.9678 16.0927 20.9136C16.0927 19.8594 15.2331 18.9999 14.1789 18.9999ZM22.5978 22.8273C21.5436 22.8273 20.6841 21.9678 20.6841 20.9136C20.6841 19.8594 21.5436 18.9999 22.5978 18.9999C23.652 18.9999 24.5116 19.8594 24.5116 20.9136C24.5116 21.9678 23.652 22.8273 22.5978 22.8273ZM22.9355 25.9678C21.6278 27.2718 19.1263 27.3746 18.3916 27.3746C17.6569 27.3746 15.1518 27.2718 13.8477 25.9678C13.653 25.7731 13.653 25.4609 13.8477 25.2662C14.0424 25.0716 14.3546 25.0716 14.5493 25.2662C15.3722 26.089 17.1317 26.3829 18.3916 26.3829C19.6479 26.3829 21.411 26.089 22.2339 25.2662C22.4285 25.0716 22.7408 25.0716 22.9355 25.2662C23.1265 25.4609 23.1265 25.7731 22.9355 25.9678Z" fill="#69F5DB"/>
</svg>
