<svg width="38" height="37" viewBox="0 0 38 37" fill="none" xmlns="http://www.w3.org/2000/svg">
<path fill-rule="evenodd" clip-rule="evenodd" d="M19.0765 0.634155C8.92912 0.634155 0.710205 8.85009 0.710205 18.9938C0.710205 27.1179 5.96755 33.9798 13.2682 36.4125C14.1865 36.5731 14.5308 36.0223 14.5308 35.5404C14.5308 35.1044 14.5079 33.6585 14.5079 32.1209C9.89335 32.97 8.69954 30.9964 8.33221 29.9637C8.12559 29.4358 7.23024 27.8064 6.44967 27.3704C5.80685 27.0261 4.88853 26.177 6.42671 26.154C7.87306 26.1311 8.90616 27.4851 9.25053 28.0359C10.9035 30.8128 13.5436 30.0325 14.5997 29.5506C14.7604 28.3572 15.2425 27.554 15.7706 27.095C11.6841 26.636 7.4139 25.0525 7.4139 18.0299C7.4139 16.0333 8.12559 14.3809 9.29644 13.0958C9.11278 12.6368 8.46996 10.7549 9.48011 8.23045C9.48011 8.23045 11.0183 7.74851 14.5308 10.1123C16.0001 9.69922 17.5613 9.49268 19.1224 9.49268C20.6835 9.49268 22.2447 9.69922 23.714 10.1123C27.2265 7.72556 28.7647 8.23045 28.7647 8.23045C29.7748 10.7549 29.132 12.6368 28.9484 13.0958C30.1192 14.3809 30.8309 16.0103 30.8309 18.0299C30.8309 25.0754 26.5378 26.636 22.4513 27.095C23.1171 27.6687 23.691 28.7703 23.691 30.4915C23.691 32.9471 23.6681 34.9208 23.6681 35.5404C23.6681 36.0223 24.0124 36.5961 24.9307 36.4125C32.1854 33.9798 37.4428 27.095 37.4428 18.9938C37.4428 8.85009 29.2239 0.634155 19.0765 0.634155Z" fill="#69F5DB"/>
</svg>
