<svg width="87" height="92" viewBox="0 0 87 92" fill="none" xmlns="http://www.w3.org/2000/svg">
<path d="M11.4003 14.3357L23.2491 7.49449L35.0902 14.3357L23.2491 21.1769L11.4003 14.3357Z" fill="#C5F8DE"/>
<path fill-rule="evenodd" clip-rule="evenodd" d="M22.6714 1.15485C23.029 0.948374 23.4696 0.948374 23.8271 1.15485L44.9208 13.3349C45.2784 13.5414 45.4986 13.923 45.4985 14.3359C45.4985 14.7487 45.2781 15.1302 44.9205 15.3366L23.8269 27.509C23.4694 27.7152 23.0291 27.7152 22.6717 27.509L1.57802 15.3366C1.2204 15.1302 1.00006 14.7487 1 14.3359C0.999943 13.923 1.22018 13.5414 1.57774 13.3349L22.6714 1.15485ZM4.46713 14.3354L23.2493 25.1739L42.0314 14.3354L23.2493 3.49002L4.46713 14.3354Z" fill="#B88DFC" stroke="#B88DFC" stroke-width="0.5" stroke-linecap="round" stroke-linejoin="round"/>
<path fill-rule="evenodd" clip-rule="evenodd" d="M2.15561 13.1801C2.79383 13.1801 3.31121 13.6975 3.31121 14.3357V38.0204L11.2071 42.5713C11.7601 42.89 11.95 43.5967 11.6313 44.1496C11.3126 44.7026 10.6059 44.8925 10.053 44.5738L1 39.356V14.3357C1 13.6975 1.51738 13.1801 2.15561 13.1801Z" fill="#B88DFC" stroke="#B88DFC" stroke-width="0.5" stroke-miterlimit="10" stroke-linecap="round"/>
<path fill-rule="evenodd" clip-rule="evenodd" d="M44.3357 13.1802C44.9739 13.1802 45.4913 13.6975 45.4913 14.3358V36.5696C45.4913 37.2078 44.9739 37.7252 44.3357 37.7252C43.6974 37.7252 43.1801 37.2078 43.1801 36.5696V14.3358C43.1801 13.6975 43.6974 13.1802 44.3357 13.1802Z" fill="#B88DFC" stroke="#B88DFC" stroke-width="0.5" stroke-miterlimit="10" stroke-linecap="round"/>
<path fill-rule="evenodd" clip-rule="evenodd" d="M23.2492 25.3526C23.8875 25.3526 24.4048 25.8699 24.4048 26.5082V34.1814C24.4048 34.8196 23.8875 35.337 23.2492 35.337C22.611 35.337 22.0936 34.8196 22.0936 34.1814V26.5082C22.0936 25.8699 22.611 25.3526 23.2492 25.3526Z" fill="#B88DFC" stroke="#B88DFC" stroke-width="0.5" stroke-miterlimit="10" stroke-linecap="round"/>
<path fill-rule="evenodd" clip-rule="evenodd" d="M74.7678 47.2009C75.087 46.6482 75.7938 46.459 76.3464 46.7782L85.6298 52.1402C85.9873 52.3467 86.2075 52.7282 86.2075 53.141C86.2074 53.5538 85.9871 53.9353 85.6296 54.1417L64.5437 66.3141C64.1864 66.5203 63.7462 66.5205 63.3888 66.3144L56.5322 62.3623C55.9793 62.0436 55.7894 61.3369 56.1081 60.784C56.4268 60.231 57.1334 60.0412 57.6864 60.3599L63.9655 63.9792L82.7409 53.1406L75.1905 48.7795C74.6378 48.4603 74.4486 47.7535 74.7678 47.2009Z" fill="#B88DFC" stroke="#B88DFC" stroke-width="0.5" stroke-linecap="round" stroke-linejoin="round"/>
<path fill-rule="evenodd" clip-rule="evenodd" d="M85.0506 51.9852C85.6888 51.9852 86.2062 52.5026 86.2062 53.1409V78.1606L63.9647 91L41.7153 78.1607V59.8511C41.7153 59.2129 42.2327 58.6955 42.8709 58.6955C43.5092 58.6955 44.0265 59.2129 44.0265 59.8511V76.826L63.9645 88.3314L83.8949 76.8261V53.1409C83.8949 52.5026 84.4123 51.9852 85.0506 51.9852Z" fill="#B88DFC" stroke="#B88DFC" stroke-width="0.5" stroke-miterlimit="10" stroke-linecap="round"/>
<path fill-rule="evenodd" clip-rule="evenodd" d="M63.9572 64.1577C64.5955 64.1577 65.1128 64.6751 65.1128 65.3133V81.4918C65.1128 82.13 64.5955 82.6474 63.9572 82.6474C63.319 82.6474 62.8016 82.13 62.8016 81.4918V65.3133C62.8016 64.6751 63.319 64.1577 63.9572 64.1577Z" fill="#B88DFC" stroke="#B88DFC" stroke-width="0.5" stroke-miterlimit="10" stroke-linecap="round"/>
<path fill-rule="evenodd" clip-rule="evenodd" d="M23.5566 39.2045C21.2845 39.2045 19.1055 40.1071 17.4988 41.7137C15.8922 43.3203 14.9897 45.4993 14.9897 47.7714C14.9897 50.0435 15.8922 52.2225 17.4988 53.8291C19.1055 55.4357 21.2845 56.3383 23.5566 56.3383H36.6534C37.2917 56.3383 37.809 56.8557 37.809 57.4939C37.809 58.1321 37.2917 58.6495 36.6534 58.6495H23.5566C20.6715 58.6495 17.9046 57.5034 15.8646 55.4633C13.8245 53.4233 12.6785 50.6565 12.6785 47.7714C12.6785 44.8864 13.8245 42.1194 15.8646 40.0794C17.9046 38.0394 20.6715 36.8933 23.5566 36.8933H36.6534C39.5385 36.8933 42.3054 38.0394 44.3454 40.0794C46.3855 42.1194 47.5315 44.8864 47.5315 47.7714C47.5315 48.4096 47.0141 48.927 46.3759 48.927C45.7377 48.927 45.2203 48.4096 45.2203 47.7714C45.2203 45.4993 44.3177 43.3203 42.7111 41.7137C41.1045 40.1071 38.9255 39.2045 36.6534 39.2045H23.5566Z" fill="#B88DFC" stroke="#B88DFC" stroke-width="0.5" stroke-linecap="round" stroke-linejoin="round"/>
<path fill-rule="evenodd" clip-rule="evenodd" d="M47.9331 38.0489C47.9331 37.4106 48.4504 36.8933 49.0887 36.8933H62.1855C65.0706 36.8933 67.8375 38.0394 69.8775 40.0794C71.9176 42.1194 73.0636 44.8864 73.0636 47.7714C73.0636 50.6565 71.9176 53.4233 69.8775 55.4633C67.8375 57.5034 65.0706 58.6495 62.1855 58.6495H49.0887C46.2036 58.6495 43.4367 57.5034 41.3967 55.4633C39.3566 53.4233 38.2106 50.6565 38.2106 47.7714H40.5218C40.5218 50.0435 41.4243 52.2225 43.0309 53.8291C44.6376 55.4357 46.8166 56.3383 49.0887 56.3383H62.1855C64.4576 56.3383 66.6366 55.4357 68.2433 53.8291C69.8499 52.2225 70.7524 50.0435 70.7524 47.7714C70.7524 45.4993 69.8499 43.3203 68.2433 41.7137C66.6366 40.1071 64.4576 39.2045 62.1855 39.2045H49.0887C48.4504 39.2045 47.9331 38.6871 47.9331 38.0489Z" fill="#B88DFC" stroke="#B88DFC" stroke-width="0.5" stroke-linecap="round" stroke-linejoin="round"/>
<path fill-rule="evenodd" clip-rule="evenodd" d="M52.3243 44.2891C52.3243 43.6508 52.8417 43.1335 53.4799 43.1335H62.1933C63.4192 43.1335 64.5949 43.6204 65.4618 44.4873C66.3287 45.3542 66.8157 46.53 66.8157 47.7559C66.8157 48.9818 66.3287 50.1575 65.4618 51.0244C64.595 51.8913 63.4192 52.3783 62.1933 52.3783C61.555 52.3783 61.0377 51.8609 61.0377 51.2227C61.0377 50.5845 61.555 50.0671 62.1933 50.0671C62.8062 50.0671 63.3941 49.8236 63.8276 49.3901C64.261 48.9567 64.5045 48.3689 64.5045 47.7559C64.5045 47.1429 64.261 46.555 63.8276 46.1216C63.3941 45.6882 62.8063 45.4447 62.1933 45.4447H53.4799C52.8417 45.4447 52.3243 44.9273 52.3243 44.2891Z" fill="#B88DFC" stroke="#B88DFC" stroke-width="0.5" stroke-linecap="round" stroke-linejoin="round"/>
<path fill-rule="evenodd" clip-rule="evenodd" d="M19.5876 44.518C20.4545 43.6512 21.6302 43.1641 22.8562 43.1641C23.4944 43.1641 24.0118 43.6815 24.0118 44.3197C24.0118 44.958 23.4944 45.4753 22.8562 45.4753C22.2432 45.4753 21.6553 45.7189 21.2219 46.1523C20.7885 46.5857 20.545 47.1736 20.545 47.7866C20.545 48.3996 20.7885 48.9874 21.2219 49.4209C21.6553 49.8543 22.2432 50.0978 22.8562 50.0978H31.5695C32.2077 50.0978 32.7251 50.6152 32.7251 51.2534C32.7251 51.8916 32.2077 52.409 31.5695 52.409H22.8562C21.6303 52.409 20.4545 51.922 19.5876 51.0551C18.7207 50.1882 18.2338 49.0125 18.2338 47.7866C18.2338 46.5606 18.7207 45.3849 19.5876 44.518Z" fill="#B88DFC" stroke="#B88DFC" stroke-width="0.5" stroke-linecap="round" stroke-linejoin="round"/>
<path d="M80.4288 61.1456L68.8112 67.8558V81.5304L80.4288 74.8202V61.1456Z" fill="#C5F8DE"/>
</svg>
