<svg width="154" height="154" viewBox="0 0 154 154" fill="none" xmlns="http://www.w3.org/2000/svg">
<path d="M138.714 110.554L148.633 118.354V139.717" stroke="#767185" stroke-width="4" stroke-linecap="round" stroke-linejoin="round"/>
<path d="M110.791 110.554L100.872 118.354" stroke="#767185" stroke-width="4" stroke-linecap="round" stroke-linejoin="round"/>
<path d="M15.2848 110.554L5.36584 118.354V139.717" stroke="#767185" stroke-width="4" stroke-linecap="round" stroke-linejoin="round"/>
<path d="M43.1959 110.554L53.115 118.354" stroke="#767185" stroke-width="4" stroke-linecap="round" stroke-linejoin="round"/>
<path d="M63.0339 110.554L53.115 118.354" stroke="#767185" stroke-width="4" stroke-linecap="round" stroke-linejoin="round"/>
<path d="M90.9548 110.554L100.874 118.354C100.874 118.354 100.874 142.427 100.874 150.77" stroke="#767185" stroke-width="4" stroke-linecap="round" stroke-linejoin="round"/>
<path d="M53.115 118.354V151.051" stroke="#767185" stroke-width="4" stroke-miterlimit="10" stroke-linecap="round"/>
<path d="M29.0943 110.01C36.8818 110.01 43.1947 103.198 43.1947 94.7944C43.1947 86.3912 36.8818 79.5792 29.0943 79.5792C21.3069 79.5792 14.994 86.3912 14.994 94.7944C14.994 103.198 21.3069 110.01 29.0943 110.01Z" stroke="#767185" stroke-width="4" stroke-miterlimit="10" stroke-linecap="round"/>
<path d="M76.9989 110.01C84.7863 110.01 91.0992 103.198 91.0992 94.7944C91.0992 86.3912 84.7863 79.5792 76.9989 79.5792C69.2115 79.5792 62.8984 86.3912 62.8984 94.7944C62.8984 103.198 69.2115 110.01 76.9989 110.01Z" stroke="#767185" stroke-width="4" stroke-miterlimit="10" stroke-linecap="round"/>
<path d="M124.891 110.01C132.679 110.01 138.992 103.198 138.992 94.7944C138.992 86.3912 132.679 79.5792 124.891 79.5792C117.104 79.5792 110.791 86.3912 110.791 94.7944C110.791 103.198 117.104 110.01 124.891 110.01Z" stroke="#767185" stroke-width="4" stroke-miterlimit="10" stroke-linecap="round"/>
<path d="M76.9984 65.1238C91.0031 65.1238 102.356 54.4413 102.356 41.2637C102.356 28.0861 91.0031 17.4036 76.9984 17.4036C62.9937 17.4036 51.6405 28.0861 51.6405 41.2637C51.6405 54.4413 62.9937 65.1238 76.9984 65.1238Z" stroke="#767185" stroke-width="4" stroke-linecap="round" stroke-linejoin="round"/>
<path d="M77.0005 23.0354C74.8765 23.0391 72.7696 23.3791 70.7751 24.0398C74.5891 25.4103 77.8604 27.7853 80.1652 30.857C82.47 33.9288 83.7021 37.5558 83.7021 41.2684C83.7021 44.981 82.47 48.608 80.1652 51.6798C77.8604 54.7516 74.5891 57.1265 70.7751 58.497C72.7696 59.1577 74.8765 59.4976 77.0005 59.5013C87.5524 59.5013 96.1329 51.3165 96.1329 41.2637C96.1329 31.2109 87.5524 23.0354 77.0005 23.0354Z" fill="#AE9AFF"/>
<path d="M117.711 41.264H139.167" stroke="#767185" stroke-width="4" stroke-linecap="round" stroke-linejoin="round"/>
<path d="M113.979 25.2318H128.443" stroke="#767185" stroke-width="4" stroke-linecap="round" stroke-linejoin="round"/>
<path d="M114.029 57.1546H128.14" stroke="#767185" stroke-width="4" stroke-linecap="round" stroke-linejoin="round"/>
<path d="M145.116 46.6329C148.394 46.6329 151.051 44.2291 151.051 41.2639C151.051 38.2987 148.394 35.8949 145.116 35.8949C141.839 35.8949 139.182 38.2987 139.182 41.2639C139.182 44.2291 141.839 46.6329 145.116 46.6329Z" stroke="#767185" stroke-width="4" stroke-linecap="round" stroke-linejoin="round"/>
<path d="M134.376 30.6008C137.654 30.6008 140.311 28.197 140.311 25.2318C140.311 22.2666 137.654 19.8629 134.376 19.8629C131.098 19.8629 128.441 22.2666 128.441 25.2318C128.441 28.197 131.098 30.6008 134.376 30.6008Z" stroke="#767185" stroke-width="4" stroke-linecap="round" stroke-linejoin="round"/>
<path d="M134.085 62.5237C137.363 62.5237 140.02 60.1199 140.02 57.1547C140.02 54.1895 137.363 51.7858 134.085 51.7858C130.808 51.7858 128.151 54.1895 128.151 57.1547C128.151 60.1199 130.808 62.5237 134.085 62.5237Z" stroke="#767185" stroke-width="4" stroke-linecap="round" stroke-linejoin="round"/>
<path d="M36.2844 41.264H14.8175" stroke="#767185" stroke-width="4" stroke-linecap="round" stroke-linejoin="round"/>
<path d="M40.0184 25.2318H25.5548" stroke="#767185" stroke-width="4" stroke-linecap="round" stroke-linejoin="round"/>
<path d="M39.9697 57.1546H25.8486" stroke="#767185" stroke-width="4" stroke-linecap="round" stroke-linejoin="round"/>
<path d="M8.88351 46.6329C12.1612 46.6329 14.8183 44.2292 14.8183 41.264C14.8183 38.2987 12.1612 35.8949 8.88351 35.8949C5.60581 35.8949 2.94861 38.2987 2.94861 41.264C2.94861 44.2292 5.60581 46.6329 8.88351 46.6329Z" stroke="#767185" stroke-width="4" stroke-linecap="round" stroke-linejoin="round"/>
<path d="M19.6114 30.6008C22.8891 30.6008 25.5462 28.197 25.5462 25.2318C25.5462 22.2666 22.8891 19.8629 19.6114 19.8629C16.3337 19.8629 13.6766 22.2666 13.6766 25.2318C13.6766 28.197 16.3337 30.6008 19.6114 30.6008Z" stroke="#767185" stroke-width="4" stroke-linecap="round" stroke-linejoin="round"/>
<path d="M19.91 62.5237C23.1877 62.5237 25.8448 60.1199 25.8448 57.1547C25.8448 54.1895 23.1877 51.7858 19.91 51.7858C16.6323 51.7858 13.9751 54.1895 13.9751 57.1547C13.9751 60.1199 16.6323 62.5237 19.91 62.5237Z" stroke="#767185" stroke-width="4" stroke-linecap="round" stroke-linejoin="round"/>
<path d="M88.8262 77.9362C94.4178 76.297 99.5589 73.5981 103.907 70.0194C108.254 66.4408 111.708 62.0647 114.039 57.183" stroke="#767185" stroke-width="4" stroke-linecap="round" stroke-linejoin="round"/>
<path d="M39.958 57.183C42.249 61.9789 45.6241 66.2879 49.8662 69.833C54.1083 73.3781 59.1236 76.0808 64.5895 77.7674" stroke="#767185" stroke-width="4" stroke-linecap="round" stroke-linejoin="round"/>
<path d="M40.0106 25.2318C37.5456 30.282 36.2768 35.7432 36.2858 41.2638" stroke="#767185" stroke-width="4" stroke-linecap="round" stroke-linejoin="round"/>
<path d="M108.851 17.4037C105.135 12.9341 100.325 9.30331 94.7992 6.79557C89.2731 4.28782 83.1804 2.97121 76.9981 2.94873V2.94873C70.8158 2.97121 64.7231 4.28782 59.1971 6.79557C53.671 9.30331 48.8617 12.9341 45.1453 17.4037" stroke="#767185" stroke-width="4" stroke-linecap="round" stroke-linejoin="round"/>
<path d="M117.711 41.2638C117.72 35.7432 116.451 30.282 113.986 25.2318" stroke="#767185" stroke-width="4" stroke-linecap="round" stroke-linejoin="round"/>
</svg>
