<svg width="120" height="120" viewBox="0 0 120 120" fill="none" xmlns="http://www.w3.org/2000/svg">
<g clip-path="url(#clip0_651_9488)">
<path d="M70.9599 120H49.0753L47.8707 115.867C45.9979 109.627 41.8038 104.432 36.0623 101.23L35.8601 101.117C30.1801 97.8013 23.5505 96.8267 17.1671 98.3669L12.9467 99.4025L2 80.6236L5.0598 77.5344C6.55454 75.9942 7.83825 74.2625 8.86697 72.3742C9.21868 71.7389 10.01 71.504 10.6519 71.8521C11.2937 72.2001 11.5311 72.992 11.1794 73.6186C10.0364 75.707 8.61199 77.6302 6.94141 79.3445L5.27962 81.0326L14.2304 96.3916L16.5253 95.826C23.5857 94.1204 30.9099 95.1994 37.1614 98.8455L37.346 98.95C43.6854 102.483 48.3191 108.226 50.3941 115.127L51.0536 117.389H68.964L69.6234 115.136C71.6897 108.235 76.3146 102.5 82.654 98.9761L82.7947 98.8891C89.0462 95.2168 96.3791 94.1204 103.448 95.8086L105.752 96.3742L114.712 81.0326L113.067 79.3445C111.115 77.3343 109.506 75.0457 108.275 72.5482C107.959 71.8956 108.231 71.1211 108.882 70.7991C109.542 70.4859 110.324 70.7556 110.649 71.3996C111.757 73.6621 113.217 75.7244 114.967 77.5344L117.982 80.6323L107.036 99.3677L102.815 98.3321C96.4319 96.8093 89.7935 97.8013 84.1399 101.117L83.9729 101.212C78.205 104.424 74.0197 109.61 72.1469 115.849L70.9423 119.983L70.9599 120Z" fill="white"/>
<path d="M109.48 49.3488C109.287 49.3488 109.093 49.3053 108.9 49.2183C108.249 48.905 107.977 48.1218 108.293 47.4692C109.524 44.9717 111.133 42.6831 113.085 40.6816L114.729 38.9935L105.77 23.6345L103.475 24.2001C96.4231 25.8796 89.1077 24.7919 82.865 21.137L82.6891 21.0413C76.3497 17.517 71.7161 11.765 69.641 4.86439L68.9816 2.60188H51.0624L50.3941 4.86439C48.3367 11.7737 43.7118 17.517 37.3812 21.05L37.0119 21.2676H36.9152C30.734 24.7832 23.5241 25.8187 16.578 24.174L14.2568 23.6084L5.27962 38.9935L6.92382 40.6816C8.4889 42.2915 9.83415 44.0928 10.942 46.042C11.3025 46.6686 11.0739 47.4692 10.4408 47.8172C9.80778 48.174 8.99886 47.9478 8.64716 47.3212C7.6536 45.5721 6.43144 43.9449 5.03343 42.4917L2 39.3938L12.9643 20.6149L17.1935 21.6505C23.5769 23.1646 30.2153 22.1726 35.8777 18.8571L36.1854 18.6744H36.2821C41.9269 15.446 46.0155 10.3031 47.8531 4.15083L49.0665 0.017395H70.9423L72.1469 4.15083C74.0197 10.3901 78.2138 15.5939 83.9553 18.7875L84.1575 18.9006C89.8199 22.2248 96.4407 23.2081 102.815 21.6853L107.036 20.6497L117.982 39.4112L114.967 42.5091C113.208 44.3191 111.757 46.3727 110.649 48.6352C110.421 49.0964 109.955 49.3662 109.462 49.3662L109.48 49.3488Z" fill="white"/>
<path d="M60.0134 79.6316C49.48 79.6316 40.916 70.8339 40.916 60.0174C40.916 49.2009 49.48 40.4032 60.0134 40.4032C70.5469 40.4032 79.1108 49.2009 79.1108 60.0174C79.1108 70.8339 70.5469 79.6316 60.0134 79.6316ZM60.0134 43.0138C50.9395 43.0138 43.5538 50.6454 43.5538 60.0174C43.5538 69.3894 50.9395 77.021 60.0134 77.021C69.0873 77.021 76.4731 69.3894 76.4731 60.0174C76.4731 50.6454 69.0873 43.0138 60.0134 43.0138Z" fill="white"/>
<path d="M60.0137 46.9384C58.3167 46.9384 56.6461 47.2951 55.0986 47.9913C61.8073 51.2371 64.5946 59.2516 61.315 65.8912C59.9961 68.5714 57.8067 70.7382 55.0986 72.0435C56.6373 72.7397 58.3167 73.1051 60.0137 73.1051C66.907 73.1051 72.5167 67.2313 72.5167 60.0522C72.5167 52.8731 66.951 46.9384 60.0137 46.9384Z" fill="#69F5DB"/>
<path d="M103.607 61.3227H88.563C87.8332 61.3227 87.2441 60.7397 87.2441 60.0174C87.2441 59.2951 87.8332 58.7121 88.563 58.7121H103.607C104.337 58.7121 104.926 59.2951 104.926 60.0174C104.926 60.7397 104.337 61.3227 103.607 61.3227Z" fill="white"/>
<path d="M96.0797 49.0268H85.9419C85.2121 49.0268 84.623 48.4438 84.623 47.7216C84.623 46.9993 85.2121 46.4163 85.9419 46.4163H96.0797C96.8095 46.4163 97.3986 46.9993 97.3986 47.7216C97.3986 48.4438 96.8095 49.0268 96.0797 49.0268Z" fill="white"/>
<path d="M95.8775 73.5055H85.9771C85.2473 73.5055 84.6582 72.9224 84.6582 72.2002C84.6582 71.4779 85.2473 70.8949 85.9771 70.8949H95.8775C96.6073 70.8949 97.1964 71.4779 97.1964 72.2002C97.1964 72.9224 96.6073 73.5055 95.8775 73.5055Z" fill="white"/>
<path d="M107.775 65.4561C106.315 65.4561 104.943 64.8905 103.906 63.8724C102.868 62.8455 102.297 61.488 102.288 60.0348C102.288 57.0413 104.741 54.5961 107.766 54.5961C110.799 54.5961 113.261 57.0239 113.261 60.0174C113.261 63.0109 110.808 65.4561 107.783 65.4561H107.775ZM107.775 57.2067C106.201 57.2067 104.926 58.4771 104.926 60.0348C104.926 60.7919 105.225 61.4967 105.761 62.0275C106.297 62.5584 107.01 62.8455 107.775 62.8455C108.54 62.8455 109.252 62.5497 109.788 62.0188C110.324 61.488 110.623 60.7745 110.615 60.0261C110.615 58.4771 109.331 57.2154 107.766 57.2154L107.775 57.2067Z" fill="white"/>
<path d="M100.248 53.1516C97.2236 53.1516 94.7617 50.715 94.7617 47.7215C94.7617 44.7281 97.2236 42.2915 100.248 42.2915C103.273 42.2915 105.735 44.7281 105.735 47.7215C105.735 50.715 103.273 53.1516 100.248 53.1516ZM100.248 44.9021C98.6744 44.9021 97.3995 46.1639 97.3995 47.7215C97.3995 49.2792 98.6744 50.541 100.248 50.541C101.822 50.541 103.097 49.2792 103.097 47.7215C103.097 46.1639 101.822 44.9021 100.248 44.9021Z" fill="white"/>
<path d="M100.037 77.6302C97.0127 77.6302 94.5508 75.1936 94.5508 72.2002C94.5508 69.2067 97.0127 66.7701 100.037 66.7701C103.062 66.7701 105.524 69.2067 105.524 72.2002C105.524 75.1936 103.062 77.6302 100.037 77.6302ZM100.037 69.3807C98.4635 69.3807 97.1885 70.6425 97.1885 72.2002C97.1885 73.7578 98.4635 75.0196 100.037 75.0196C101.611 75.0196 102.886 73.7578 102.886 72.2002C102.886 70.6425 101.611 69.3807 100.037 69.3807Z" fill="white"/>
<path d="M31.4635 61.3227H16.4195C15.6897 61.3227 15.1006 60.7397 15.1006 60.0174C15.1006 59.2951 15.6897 58.7121 16.4195 58.7121H31.4635C32.1933 58.7121 32.7824 59.2951 32.7824 60.0174C32.7824 60.7397 32.1933 61.3227 31.4635 61.3227Z" fill="white"/>
<path d="M34.0836 49.0268H23.9458C23.2161 49.0268 22.627 48.4438 22.627 47.7216C22.627 46.9993 23.2161 46.4163 23.9458 46.4163H34.0836C34.8134 46.4163 35.4025 46.9993 35.4025 47.7216C35.4025 48.4438 34.8134 49.0268 34.0836 49.0268Z" fill="white"/>
<path d="M34.0484 73.5055H24.148C23.4182 73.5055 22.8291 72.9224 22.8291 72.2002C22.8291 71.4779 23.4182 70.8949 24.148 70.8949H34.0484C34.7782 70.8949 35.3673 71.4779 35.3673 72.2002C35.3673 72.9224 34.7782 73.5055 34.0484 73.5055Z" fill="white"/>
<path d="M12.2522 65.4474C9.22754 65.4474 6.76562 63.0109 6.76562 60.0174C6.76562 57.0239 9.22754 54.5874 12.2522 54.5874C15.2768 54.5874 17.7387 57.0239 17.7387 60.0174C17.7387 63.0109 15.2768 65.4474 12.2522 65.4474ZM12.2522 57.198C10.6783 57.198 9.40339 58.4597 9.40339 60.0174C9.40339 61.575 10.6783 62.8368 12.2522 62.8368C13.826 62.8368 15.101 61.575 15.101 60.0174C15.101 58.4597 13.826 57.198 12.2522 57.198Z" fill="white"/>
<path d="M19.7785 53.1516C16.7539 53.1516 14.292 50.715 14.292 47.7215C14.292 44.7281 16.7539 42.2915 19.7785 42.2915C22.8032 42.2915 25.2651 44.7281 25.2651 47.7215C25.2651 50.715 22.8032 53.1516 19.7785 53.1516ZM19.7785 44.9021C18.2047 44.9021 16.9298 46.1639 16.9298 47.7215C16.9298 49.2792 18.2047 50.541 19.7785 50.541C21.3524 50.541 22.6273 49.2792 22.6273 47.7215C22.6273 46.1639 21.3524 44.9021 19.7785 44.9021Z" fill="white"/>
<path d="M19.9895 77.6302C16.9648 77.6302 14.5029 75.1936 14.5029 72.2002C14.5029 69.2067 16.9648 66.7701 19.9895 66.7701C23.0141 66.7701 25.476 69.2067 25.476 72.2002C25.476 75.1936 23.0141 77.6302 19.9895 77.6302ZM19.9895 69.3807C18.4156 69.3807 17.1407 70.6425 17.1407 72.2002C17.1407 73.7578 18.4156 75.0196 19.9895 75.0196C21.5633 75.0196 22.8383 73.7578 22.8383 72.2002C22.8383 70.6425 21.5633 69.3807 19.9895 69.3807Z" fill="white"/>
<path d="M60.0221 90.7179C48.1258 90.6048 37.4605 83.5475 32.8268 72.7397C32.5454 72.0783 32.8532 71.3125 33.5214 71.0254C34.1896 70.7382 34.9634 71.0515 35.2535 71.7128C39.4827 81.5722 49.2073 88.0029 60.0221 88.1073C70.8194 88.0029 80.5351 81.5722 84.7731 71.7128C85.0545 71.0515 85.837 70.7382 86.5053 71.0254C87.1735 71.3038 87.49 72.0696 87.1999 72.7397C82.5574 83.5475 71.8921 90.6048 60.0221 90.7179Z" fill="white"/>
<path d="M31.4458 61.3662C30.7161 61.3662 30.127 60.7832 30.127 60.0609C30.127 55.6142 31.0502 51.2981 32.879 47.2342C33.178 46.5729 33.9517 46.277 34.6199 46.5729C35.2882 46.8688 35.5871 47.6345 35.2882 48.2959C33.6088 52.0203 32.7647 55.9797 32.7647 60.0609C32.7647 60.7832 32.1756 61.3662 31.4458 61.3662Z" fill="white"/>
<path d="M37.68 42.979C37.4074 42.979 37.126 42.892 36.8886 42.7179C36.3083 42.2828 36.194 41.4648 36.6337 40.8905C42.1378 33.6679 50.8776 29.3343 60.013 29.2908C69.1661 29.3343 77.9059 33.6679 83.4012 40.8905C83.8408 41.4648 83.7265 42.2828 83.1462 42.7179C82.5659 43.153 81.7394 43.0399 81.2998 42.4656C76.288 35.8956 68.3308 31.9449 60.013 31.9101C51.7041 31.9449 43.7468 35.8956 38.7351 42.4656C38.4801 42.8049 38.0844 42.9877 37.68 42.9877V42.979Z" fill="white"/>
<path d="M88.5628 61.3227C87.833 61.3227 87.2439 60.7397 87.2439 60.0174C87.2439 55.9362 86.391 51.9768 84.7205 48.2524C84.4215 47.591 84.7204 46.8252 85.3887 46.5294C86.0569 46.2422 86.8307 46.5294 87.1296 47.1907C88.9585 51.2545 89.8817 55.5707 89.8817 60.0174C89.8817 60.7397 89.2926 61.3227 88.5628 61.3227Z" fill="white"/>
</g>
<defs>
<clipPath id="clip0_651_9488">
<rect width="116" height="120" fill="white" transform="translate(2)"/>
</clipPath>
</defs>
</svg>
