<svg width="140" height="36" viewBox="0 0 140 36" fill="none" xmlns="http://www.w3.org/2000/svg">
<g clip-path="url(#clip0_1109_200)">
<path d="M65.3455 16.8659C64.5624 16.8673 63.7851 17.0011 63.0456 17.2617C62.3396 17.5054 61.6936 17.8999 61.1515 18.4186C60.5963 18.9472 60.1605 19.5911 59.8737 20.3061C59.528 21.1386 59.3639 22.0369 59.3927 22.9395C59.331 23.7813 59.4526 24.6265 59.7487 25.4156C60.0448 26.2046 60.5082 26.9182 61.1064 27.5061C62.2658 28.5292 63.7632 29.0727 65.3004 29.0283C66.15 29.0424 66.9966 28.9244 67.8108 28.6782C68.4592 28.4825 69.0923 28.2382 69.7049 27.9475C70.3072 28.3408 70.8197 28.8598 71.2081 29.4697C71.5438 30.0559 71.7105 30.7257 71.6892 31.4029C71.6957 32.0509 71.5214 32.6876 71.1863 33.2397C70.8512 33.7917 70.369 34.2367 69.7951 34.5234C68.1748 35.3436 66.373 35.7264 64.5638 35.6346C62.6689 35.6798 60.781 35.3861 58.9868 34.767C57.42 34.2156 55.9784 33.3512 54.7477 32.2249C53.5691 31.1169 52.6366 29.7678 52.0118 28.2672C51.3367 26.6337 50.9991 24.8776 51.0197 23.107C50.9778 21.1673 51.3308 19.2397 52.0569 17.4444C52.7007 15.9104 53.6829 14.5462 54.9281 13.4562C56.1404 12.3954 57.5515 11.5929 59.077 11.0968C60.6788 10.5688 62.3532 10.3017 64.0377 10.3053C65.9132 10.1932 67.7798 10.6432 69.4042 11.5991C69.975 11.9293 70.4503 12.4052 70.7827 12.9795C71.115 13.5538 71.2928 14.2063 71.2983 14.8719C71.3132 15.4847 71.1625 16.09 70.8624 16.6224C70.5931 17.1301 70.254 17.5964 69.8552 18.0076C69.2111 17.7142 68.5481 17.465 67.8709 17.2617C67.0537 17.0016 66.2022 16.8681 65.3455 16.8659V16.8659Z" fill="#8363FF"/>
<path d="M42.6615 34.767C42.1677 34.8987 41.6654 34.9953 41.1583 35.0562C40.4464 35.1604 39.7279 35.2113 39.0086 35.2084C38.3692 35.2113 37.7306 35.1604 37.0995 35.0562C36.5843 34.9832 36.0943 34.7847 35.6715 34.4778C35.273 34.1629 34.9622 33.7485 34.7695 33.2752C34.5538 32.6498 34.4569 31.9887 34.4839 31.3268V16.6224C34.4707 15.9533 34.615 15.2906 34.9048 14.6892C35.1839 14.0986 35.5896 13.5786 36.0924 13.167C36.6612 12.7292 37.2824 12.366 37.9413 12.0862C38.7378 11.7328 39.5563 11.4328 40.3916 11.1881C41.2773 10.917 42.1817 10.7134 43.0974 10.5793C44.0293 10.4551 44.9687 10.3991 45.9085 10.4118C47.198 10.344 48.4788 10.6616 49.5914 11.3251C50.0636 11.6652 50.4378 12.1265 50.6756 12.6615C50.9134 13.1966 51.0061 13.7861 50.9443 14.3695C50.9468 14.8285 50.8809 15.2852 50.7489 15.7243C50.6264 16.1347 50.4653 16.5323 50.2679 16.9116C49.57 16.9103 48.8726 16.9458 48.1784 17.0182C47.4718 17.0182 46.7804 17.1856 46.1039 17.3074C45.4274 17.4292 44.7811 17.5814 44.1948 17.7336C43.6803 17.8566 43.1773 18.0247 42.6916 18.2359L42.6615 34.767Z" fill="#8363FF"/>
<path d="M98.2513 34.767C97.7579 34.9007 97.2554 34.9974 96.748 35.0562C96.0361 35.1599 95.3176 35.2108 94.5984 35.2085C93.954 35.2113 93.3104 35.1604 92.6743 35.0562C92.1644 34.9803 91.68 34.7819 91.2612 34.4778C90.8586 34.167 90.5469 33.7514 90.3593 33.2753C90.1538 32.6479 90.0671 31.9868 90.1037 31.3268V20.4431C90.1594 19.9283 90.099 19.4074 89.9272 18.9197C89.7553 18.4319 89.4765 17.99 89.1116 17.6271C88.4124 17.0776 87.5459 16.7923 86.6613 16.8203C86.042 16.8178 85.4251 16.8997 84.8274 17.0638C84.3312 17.1862 83.8551 17.381 83.4144 17.6423V34.767C82.921 34.9007 82.4185 34.9974 81.9111 35.0562C81.1992 35.1599 80.4807 35.2108 79.7615 35.2085C79.1171 35.2113 78.4735 35.1604 77.8374 35.0562C77.3275 34.9803 76.8431 34.7819 76.4243 34.4778C76.0258 34.1629 75.715 33.7485 75.5224 33.2753C75.2501 32.6611 75.097 31.9996 75.0714 31.3268V2.89218L76.5746 2.61818C77.2711 2.50948 77.9745 2.45351 78.6792 2.45074C79.3236 2.44785 79.9671 2.49876 80.6033 2.60296C81.1131 2.67894 81.5976 2.87727 82.0163 3.18139C82.4148 3.49631 82.7256 3.91071 82.9183 4.38393C83.1499 5.02168 83.2571 5.6989 83.234 6.37801V11.1729C83.8653 10.9598 84.4967 10.7619 85.1431 10.6097C86.0754 10.3965 87.0283 10.2893 87.9842 10.2901C90.7026 10.1181 93.3855 10.9875 95.5003 12.7256C96.4434 13.6584 97.1731 14.7892 97.638 16.0385C98.1029 17.2877 98.2917 18.6249 98.1911 19.956L98.2513 34.767Z" fill="#8363FF"/>
<path d="M103.152 4.41436C103.137 3.83447 103.239 3.25763 103.451 2.71868C103.663 2.17973 103.98 1.68985 104.385 1.27863C105.28 0.457145 106.446 0.00219727 107.654 0.00219727C108.863 0.00219727 110.028 0.457145 110.924 1.27863C111.714 2.12635 112.155 3.24827 112.155 4.41436C112.155 5.58046 111.714 6.70237 110.924 7.55009C110.028 8.37158 108.863 8.82653 107.654 8.82653C106.446 8.82653 105.28 8.37158 104.385 7.55009C103.982 7.13783 103.665 6.64777 103.453 6.10907C103.242 5.57037 103.139 4.99403 103.152 4.41436V4.41436ZM111.765 34.8583L110.262 35.1323C109.566 35.2416 108.862 35.2976 108.158 35.2998C107.518 35.3027 106.88 35.2517 106.249 35.1476C105.708 35.0835 105.191 34.8848 104.745 34.5691C104.347 34.258 104.04 33.842 103.858 33.3666C103.627 32.7288 103.52 32.0516 103.543 31.3725V11.3708L105.046 11.112C105.741 10.9901 106.445 10.929 107.15 10.9294C107.79 10.9271 108.428 10.978 109.06 11.0816C109.603 11.1436 110.121 11.3482 110.563 11.6753C110.964 11.9813 111.275 12.3916 111.465 12.8626C111.696 13.5003 111.804 14.1775 111.78 14.8566L111.765 34.8583Z" fill="#8363FF"/>
<path d="M115.253 22.9395C115.209 21.0266 115.536 19.1234 116.215 17.3378C116.811 15.8589 117.725 14.533 118.891 13.4562C120.061 12.407 121.432 11.614 122.919 11.1273C124.524 10.6165 126.198 10.3598 127.88 10.3662C128.511 10.3205 129.146 10.3358 129.774 10.4118C130.288 10.495 130.792 10.6328 131.277 10.8228V2.93784C131.772 2.80255 132.274 2.69582 132.781 2.61818C133.502 2.50888 134.231 2.45291 134.96 2.45074C135.6 2.44785 136.238 2.49877 136.869 2.60296C137.41 2.66697 137.926 2.86571 138.373 3.18139C138.763 3.49764 139.063 3.91243 139.244 4.38393C139.453 5.02694 139.549 5.70161 139.53 6.37801V29.622C139.521 30.3665 139.316 31.0952 138.936 31.7323C138.555 32.3693 138.013 32.8916 137.365 33.2448C136.226 33.9767 134.991 34.5453 133.698 34.9345C130.179 35.9331 126.45 35.875 122.964 34.767C121.394 34.2348 119.958 33.3621 118.755 32.2097C117.601 31.0944 116.707 29.7318 116.14 28.2216C115.52 26.5326 115.22 24.7409 115.253 22.9395V22.9395ZM128.992 16.8507C128.255 16.8012 127.516 16.9113 126.824 17.1737C126.131 17.4362 125.503 17.845 124.979 18.3729C123.953 19.6578 123.452 21.2922 123.581 22.9395C123.474 24.5676 123.931 26.1824 124.874 27.5061C125.353 28.0294 125.942 28.4377 126.598 28.701C127.253 28.9644 127.958 29.0762 128.662 29.0283C129.175 29.0342 129.685 28.9412 130.165 28.7543C130.56 28.6215 130.927 28.415 131.247 28.1455V17.414C130.563 17.0119 129.783 16.8066 128.992 16.8203V16.8507Z" fill="#8363FF"/>
<path d="M6.6744 11.9797C7.62914 11.9797 8.40311 11.196 8.40311 10.2292C8.40311 9.26238 7.62914 8.47864 6.6744 8.47864C5.71965 8.47864 4.94568 9.26238 4.94568 10.2292C4.94568 11.196 5.71965 11.9797 6.6744 11.9797Z" fill="#8363FF"/>
<path d="M1.21762 10.9446C1.89009 10.9446 2.43524 10.3926 2.43524 9.71162C2.43524 9.03066 1.89009 8.47864 1.21762 8.47864C0.545146 8.47864 0 9.03066 0 9.71162C0 10.3926 0.545146 10.9446 1.21762 10.9446Z" fill="#8363FF"/>
<path d="M27.3588 12.9387C26.1761 11.5651 24.7346 10.4443 23.1187 9.6419C21.5029 8.83947 19.7452 8.37156 17.9486 8.26556C17.0609 8.2047 16.1694 8.2353 15.2879 8.35689V8.35689C14.9953 8.38149 14.7042 8.42214 14.416 8.47867H14.1604C13.3985 8.65333 12.6538 8.89789 11.9356 9.20932V9.20932C11.3001 9.4674 10.754 9.91001 10.3662 10.4815C9.97836 11.053 9.76605 11.7278 9.75596 12.4212C9.75596 13.3376 10.1155 14.2165 10.7554 14.8645C11.3953 15.5125 12.2633 15.8766 13.1683 15.8766C13.7199 15.7858 14.2629 15.6483 14.7918 15.4656C16.3373 14.9232 18.0221 14.9493 19.5505 15.5395C21.0789 16.1296 22.3532 17.2459 23.1498 18.6926V18.6926C24.0045 20.2766 24.2251 22.1327 23.7659 23.8768C23.3066 25.6208 22.2027 27.1193 20.6826 28.0621C19.1625 29.0048 17.3427 29.3196 15.5997 28.9412C13.8568 28.5629 12.3242 27.5204 11.3193 26.0296V26.0296L11.0036 25.6338C10.3551 24.2766 10.0799 22.7674 10.2069 21.2651V21.2651C10.1692 20.4427 9.84402 19.6607 9.2894 19.0586C8.73479 18.4566 7.98689 18.0739 7.17928 17.9787C6.37168 17.8836 5.55698 18.0823 4.8807 18.5393C4.20443 18.9963 3.71062 19.6819 3.48748 20.4736C3.42198 20.8762 3.38681 21.2833 3.38225 21.6914C3.25693 25.3112 4.52606 28.8386 6.92153 31.5285C9.317 34.2183 12.6512 35.86 16.2199 36.1066H17.0617C17.564 36.1048 18.0659 36.0743 18.5649 36.0152H18.6551L19.7224 35.8935C22.0856 35.4102 24.2815 34.3059 26.0898 32.6913C27.8981 31.0767 29.255 29.0087 30.0242 26.695C30.7935 24.3813 30.9479 21.9034 30.4722 19.5102C29.9964 17.1169 28.9071 14.8925 27.3137 13.0605L27.3588 12.9387Z" fill="#8363FF"/>
<path d="M4.43452 17.0791C5.67154 17.0791 6.67434 16.0636 6.67434 14.811C6.67434 13.5584 5.67154 12.5429 4.43452 12.5429C3.1975 12.5429 2.1947 13.5584 2.1947 14.811C2.1947 16.0636 3.1975 17.0791 4.43452 17.0791Z" fill="#8363FF"/>
</g>
<defs>
<clipPath id="clip0_1109_200">
<rect width="139.5" height="36" fill="white"/>
</clipPath>
</defs>
</svg>
