<svg width="150" height="38" viewBox="0 0 150 38" fill="none" xmlns="http://www.w3.org/2000/svg">
<g clip-path="url(#clip0_1109_494)">
<path d="M70.0408 17.8029C69.2044 17.8043 68.3742 17.9455 67.5842 18.2206C66.8302 18.4778 66.1402 18.8943 65.5612 19.4418C64.9682 19.9998 64.5027 20.6794 64.1964 21.4342C63.8272 22.3129 63.6519 23.2611 63.6826 24.2139C63.6168 25.1024 63.7465 25.9946 64.0628 26.8275C64.3791 27.6604 64.8741 28.4136 65.513 29.0342C66.7514 30.1141 68.3507 30.6878 69.9926 30.6409C70.9001 30.6559 71.8044 30.5312 72.674 30.2714C73.3665 30.0648 74.0427 29.807 74.6971 29.5001C75.3404 29.9153 75.8878 30.4631 76.3027 31.1069C76.6613 31.7256 76.8393 32.4326 76.8165 33.1475C76.8235 33.8315 76.6373 34.5035 76.2794 35.0863C75.9215 35.669 75.4064 36.1387 74.7934 36.4414C73.0628 37.3071 71.1382 37.7111 69.2059 37.6143C67.1819 37.662 65.1654 37.3519 63.2491 36.6984C61.5755 36.1164 60.0358 35.204 58.7213 34.0151C57.4625 32.8455 56.4664 31.4215 55.7991 29.8376C55.078 28.1133 54.7174 26.2596 54.7394 24.3906C54.6946 22.3432 55.0717 20.3086 55.8473 18.4135C56.5349 16.7943 57.5839 15.3542 58.914 14.2037C60.2089 13.084 61.716 12.2369 63.3454 11.7132C65.0563 11.156 66.8447 10.8739 68.6439 10.8777C70.6472 10.7595 72.6409 11.2345 74.3759 12.2435C74.9856 12.5919 75.4933 13.0943 75.8483 13.7005C76.2032 14.3067 76.3931 14.9954 76.399 15.698C76.4149 16.3449 76.2539 16.9838 75.9334 17.5458C75.6457 18.0817 75.2835 18.574 74.8576 19.008C74.1696 18.6982 73.4615 18.4352 72.7382 18.2206C71.8653 17.946 70.9559 17.8052 70.0408 17.8029V17.8029Z" fill="#8363FF"/>
<path d="M45.8123 36.6984C45.2849 36.8374 44.7484 36.9394 44.2067 37.0037C43.4464 37.1137 42.679 37.1674 41.9107 37.1644C41.2277 37.1674 40.5457 37.1137 39.8716 37.0037C39.3213 36.9266 38.7979 36.7171 38.3463 36.3931C37.9206 36.0607 37.5887 35.6233 37.3829 35.1238C37.1525 34.4636 37.049 33.7658 37.0778 33.0671V17.5458C37.0638 16.8395 37.2179 16.1401 37.5274 15.5052C37.8255 14.8818 38.2588 14.3329 38.7958 13.8984C39.4034 13.4363 40.067 13.053 40.7707 12.7576C41.6214 12.3846 42.4957 12.0679 43.3879 11.8096C44.3338 11.5234 45.2999 11.3086 46.2779 11.1669C47.2732 11.0358 48.2767 10.9768 49.2804 10.9902C50.6578 10.9186 52.0257 11.2538 53.2142 11.9543C53.7185 12.3132 54.1182 12.8001 54.3722 13.3649C54.6262 13.9297 54.7252 14.552 54.6592 15.1678C54.6618 15.6522 54.5915 16.1343 54.4505 16.5978C54.3196 17.031 54.1475 17.4507 53.9367 17.8511C53.1913 17.8497 52.4464 17.8872 51.7049 17.9636C50.9503 17.9636 50.2117 18.1403 49.4892 18.2688C48.7666 18.3974 48.0762 18.5581 47.45 18.7187C46.9005 18.8486 46.3633 19.026 45.8444 19.249L45.8123 36.6984Z" fill="#8363FF"/>
<path d="M105.187 36.6987C104.66 36.8398 104.124 36.9418 103.582 37.0039C102.821 37.1134 102.054 37.1671 101.286 37.1646C100.597 37.1677 99.9099 37.1139 99.2304 37.0039C98.6859 36.9237 98.1684 36.7144 97.7212 36.3934C97.2911 36.0653 96.9582 35.6266 96.7578 35.124C96.5383 34.4618 96.4457 33.764 96.4849 33.0674V21.579C96.5443 21.0356 96.4798 20.4858 96.2963 19.9709C96.1127 19.456 95.8149 18.9895 95.4252 18.6065C94.6784 18.0265 93.7528 17.7254 92.808 17.7549C92.1465 17.7522 91.4877 17.8387 90.8492 18.012C90.3192 18.1411 89.8107 18.3468 89.3399 18.6226V36.6987C88.813 36.8398 88.2763 36.9418 87.7343 37.0039C86.9739 37.1134 86.2065 37.1671 85.4383 37.1646C84.75 37.1677 84.0626 37.1139 83.3831 37.0039C82.8386 36.9237 82.3211 36.7144 81.8739 36.3934C81.4483 36.061 81.1163 35.6235 80.9105 35.124C80.6197 34.4757 80.4562 33.7775 80.4288 33.0674V3.053L82.0344 2.76378C82.7783 2.64904 83.5297 2.58996 84.2823 2.58704C84.9706 2.58399 85.658 2.63773 86.3374 2.74771C86.882 2.82792 87.3995 3.03726 87.8467 3.35828C88.2723 3.6907 88.6043 4.12811 88.8101 4.62763C89.0575 5.30081 89.172 6.01565 89.1473 6.73249V11.7938C89.8216 11.5689 90.496 11.36 91.1864 11.1993C92.1822 10.9743 93.2 10.8611 94.221 10.8619C97.1245 10.6804 99.9901 11.598 102.249 13.4327C103.256 14.4173 104.036 15.611 104.532 16.9296C105.029 18.2483 105.23 19.6598 105.123 21.0648L105.187 36.6987Z" fill="#8363FF"/>
<path d="M110.422 4.6596C110.406 4.04749 110.515 3.43861 110.741 2.86972C110.968 2.30082 111.307 1.78373 111.738 1.34967C112.695 0.482542 113.94 0.00231934 115.231 0.00231934C116.521 0.00231934 117.766 0.482542 118.723 1.34967C119.567 2.24448 120.038 3.42873 120.038 4.6596C120.038 5.89048 119.567 7.07473 118.723 7.96954C117.766 8.83667 116.521 9.31689 115.231 9.31689C113.94 9.31689 112.695 8.83667 111.738 7.96954C111.308 7.53438 110.97 7.01709 110.744 6.44846C110.518 5.87983 110.408 5.27148 110.422 4.6596V4.6596ZM119.622 36.7949L118.016 37.0841C117.272 37.1995 116.521 37.2586 115.768 37.2609C115.085 37.2639 114.403 37.2102 113.729 37.1002C113.152 37.0326 112.6 36.8228 112.124 36.4896C111.698 36.1612 111.37 35.7222 111.176 35.2203C110.929 34.5471 110.814 33.8323 110.839 33.1154V12.0025L112.445 11.7294C113.187 11.6007 113.939 11.5362 114.693 11.5366C115.376 11.5342 116.058 11.5879 116.732 11.6972C117.312 11.7627 117.866 11.9787 118.337 12.3239C118.766 12.6469 119.099 13.08 119.301 13.5772C119.548 14.2503 119.663 14.9652 119.638 15.682L119.622 36.7949Z" fill="#8363FF"/>
<path d="M123.347 24.214C123.3 22.1947 123.649 20.1858 124.374 18.3011C125.011 16.74 125.988 15.3404 127.232 14.2038C128.482 13.0963 129.947 12.2593 131.535 11.7455C133.25 11.2063 135.037 10.9353 136.834 10.9421C137.508 10.8939 138.186 10.9101 138.857 10.9903C139.406 11.0781 139.944 11.2235 140.463 11.4241V3.10108C140.991 2.95827 141.527 2.84561 142.068 2.76366C142.839 2.64828 143.617 2.58921 144.396 2.58691C145.079 2.58387 145.761 2.63761 146.435 2.74759C147.013 2.81516 147.565 3.02494 148.041 3.35816C148.458 3.69197 148.779 4.12981 148.972 4.62751C149.195 5.30624 149.298 6.01838 149.277 6.73237V31.2677C149.268 32.0536 149.049 32.8227 148.642 33.4952C148.236 34.1676 147.657 34.7189 146.965 35.0918C145.748 35.8643 144.429 36.4645 143.048 36.8753C139.29 37.9294 135.307 37.868 131.584 36.6985C129.907 36.1368 128.372 35.2155 127.088 33.9992C125.855 32.8219 124.9 31.3836 124.294 29.7894C123.633 28.0066 123.311 26.1154 123.347 24.214V24.214ZM138.022 17.7869C137.234 17.7346 136.445 17.8508 135.706 18.1279C134.966 18.4049 134.295 18.8364 133.735 19.3937C132.639 20.7499 132.105 22.4752 132.242 24.214C132.128 25.9325 132.616 27.637 133.623 29.0343C134.135 29.5867 134.764 30.0176 135.464 30.2956C136.164 30.5735 136.917 30.6916 137.669 30.641C138.218 30.6472 138.762 30.549 139.274 30.3518C139.696 30.2116 140.089 29.9936 140.43 29.7091V18.3814C139.7 17.957 138.867 17.7403 138.022 17.7548V17.7869Z" fill="#8363FF"/>
<path d="M7.37415 12.6451C8.39392 12.6451 9.2206 11.8179 9.2206 10.7974C9.2206 9.77686 8.39392 8.94958 7.37415 8.94958C6.35439 8.94958 5.52771 9.77686 5.52771 10.7974C5.52771 11.8179 6.35439 12.6451 7.37415 12.6451Z" fill="#8363FF"/>
<path d="M1.54578 11.5525C2.26405 11.5525 2.84632 10.9699 2.84632 10.2511C2.84632 9.53228 2.26405 8.94958 1.54578 8.94958C0.82751 8.94958 0.245239 9.53228 0.245239 10.2511C0.245239 10.9699 0.82751 11.5525 1.54578 11.5525Z" fill="#8363FF"/>
<path d="M29.4672 13.6576C28.2039 12.2077 26.6642 11.0246 24.9384 10.1776C23.2125 9.33062 21.3351 8.83672 19.4161 8.72483C18.468 8.66059 17.5158 8.69289 16.5742 8.82123V8.82123C16.2617 8.8472 15.9508 8.89011 15.6429 8.94978H15.37C14.5561 9.13414 13.7607 9.39229 12.9937 9.72102V9.72102C12.3148 9.99344 11.7316 10.4606 11.3174 11.0639C10.9031 11.6671 10.6763 12.3794 10.6656 13.1113C10.6656 14.0786 11.0496 15.0064 11.7331 15.6904C12.4166 16.3744 13.3436 16.7587 14.3103 16.7587C14.8994 16.6629 15.4795 16.5178 16.0443 16.3248C17.6951 15.7523 19.4947 15.7799 21.1271 16.4028C22.7596 17.0257 24.1207 18.2041 24.9715 19.7312V19.7312C25.8845 21.4031 26.1201 23.3624 25.6295 25.2033C25.139 27.0443 23.9599 28.626 22.3363 29.6211C20.7127 30.6162 18.7689 30.9485 16.9073 30.5492C15.0457 30.1498 13.4088 29.0494 12.3354 27.4758V27.4758L11.9982 27.058C11.3055 25.6254 11.0115 24.0323 11.1472 22.4466V22.4466C11.107 21.5785 10.7596 20.753 10.1672 20.1175C9.57485 19.4821 8.77601 19.078 7.91342 18.9776C7.05082 18.8772 6.18064 19.0869 5.4583 19.5693C4.73597 20.0517 4.20853 20.7754 3.9702 21.6111C3.90024 22.0361 3.86267 22.4658 3.8578 22.8965C3.72395 26.7174 5.0795 30.4408 7.63811 33.2801C10.1967 36.1194 13.758 37.8522 17.5697 38.1126H18.4688C19.0054 38.1107 19.5414 38.0785 20.0744 38.0162H20.1707L21.3107 37.8876C23.8348 37.3776 26.1803 36.2118 28.1118 34.5075C30.0432 32.8032 31.4925 30.6204 32.3141 28.1782C33.1357 25.7359 33.3007 23.1204 32.7926 20.5942C32.2844 18.0679 31.1209 15.72 29.419 13.7861L29.4672 13.6576Z" fill="#8363FF"/>
<path d="M4.98183 18.0278C6.30308 18.0278 7.37418 16.9559 7.37418 15.6337C7.37418 14.3115 6.30308 13.2396 4.98183 13.2396C3.66057 13.2396 2.58948 14.3115 2.58948 15.6337C2.58948 16.9559 3.66057 18.0278 4.98183 18.0278Z" fill="#8363FF"/>
</g>
<defs>
<clipPath id="clip0_1109_494">
<rect width="149" height="38" fill="white" transform="translate(0.245239)"/>
</clipPath>
</defs>
</svg>
