<svg width="38" height="38" viewBox="0 0 38 38" fill="none" xmlns="http://www.w3.org/2000/svg">
<path fill-rule="evenodd" clip-rule="evenodd" d="M37.0221 18.9757C37.0302 8.68438 28.7068 0.626071 18.7365 0.634161C8.77433 0.626071 0.459041 8.66011 0.442895 18.9434C0.426749 29.1376 8.62094 37.2768 18.6719 37.3011C28.7714 37.3335 37.0221 29.1942 37.0221 18.9757ZM13.4888 19.7765V16.1276C13.5372 16.1034 13.5776 16.1115 13.6422 16.1276H16.4758C16.6938 16.1276 16.6938 16.1276 16.6938 15.9092V13.6762C16.6884 13.4281 16.6974 13.18 16.7063 12.9319C16.7108 12.8078 16.7153 12.6837 16.718 12.5597C16.718 12.5111 16.7261 12.4626 16.7503 12.414C16.7533 12.4049 16.7575 12.3969 16.7615 12.3892C16.7682 12.3764 16.7745 12.3644 16.7745 12.3493C16.758 12.2221 16.7904 12.1025 16.823 11.9827C16.838 11.9272 16.8531 11.8717 16.8633 11.8153C16.8795 11.7101 16.9037 11.5969 16.9602 11.4917C16.9882 11.4411 17.0046 11.3826 17.0201 11.3272C17.0269 11.3029 17.0335 11.2793 17.0409 11.2571C17.1459 10.9577 17.2912 10.6907 17.4526 10.4318C17.6464 10.1163 17.8805 9.84119 18.155 9.59847C18.4375 9.34766 18.7443 9.14539 19.0753 8.97549C19.2691 8.8784 19.4628 8.80558 19.6646 8.73277C19.7346 8.71119 19.8117 8.68962 19.8889 8.66805C19.9275 8.65726 19.966 8.64647 20.0037 8.63568C20.0797 8.60902 20.1575 8.59849 20.2346 8.58807C20.3212 8.57635 20.4069 8.56476 20.4881 8.5305C20.5285 8.51432 20.5688 8.50623 20.6092 8.50623C20.811 8.50623 21.0128 8.49005 21.2147 8.45768C21.4246 8.42532 21.6425 8.43341 21.8524 8.45768C22.0704 8.48196 22.2884 8.49814 22.5064 8.49814C22.7405 8.50623 22.9665 8.50623 23.2006 8.50623C23.2733 8.50623 23.3459 8.50623 23.4105 8.52241C23.5804 8.56025 23.7504 8.56368 23.9241 8.56718C23.9732 8.56817 24.0227 8.56917 24.0725 8.57095C24.0889 8.5737 24.1063 8.57458 24.1242 8.57549C24.1593 8.57728 24.1966 8.57918 24.234 8.59523V11.8962C24.1974 11.9207 24.1562 11.9174 24.1174 11.9144C24.1048 11.9134 24.0925 11.9124 24.0806 11.9124H22.0785C21.9574 11.9124 21.8363 11.9124 21.7233 11.9609C21.7039 11.9707 21.6845 11.9716 21.6651 11.9726C21.6522 11.9732 21.6393 11.9739 21.6264 11.9771C21.2147 12.0338 20.8675 12.2118 20.6253 12.5597C20.5285 12.6891 20.48 12.8428 20.4316 12.9966C20.3578 13.2246 20.3589 13.4527 20.3601 13.6808C20.3605 13.7521 20.3609 13.8233 20.3589 13.8946C20.3468 14.3985 20.3483 14.9069 20.3498 15.4131C20.3504 15.5815 20.3509 15.7496 20.3509 15.9173V15.9901C20.3589 16.1034 20.367 16.1115 20.472 16.1196H20.5285H23.8384C23.8462 16.1196 23.8543 16.1193 23.8626 16.1189C23.8977 16.1176 23.9381 16.1161 23.9837 16.1357C23.9605 16.1881 23.9582 16.2404 23.9557 16.2958C23.9547 16.3174 23.9537 16.3395 23.9514 16.3623C23.9514 16.4836 23.9514 16.605 23.903 16.7183C23.8949 16.7264 23.8949 16.7344 23.8949 16.7425C23.8994 16.876 23.8769 17.0095 23.8545 17.143C23.8362 17.2522 23.8178 17.3615 23.8142 17.4707C23.8129 17.4894 23.8117 17.5081 23.8106 17.5267C23.805 17.6211 23.7994 17.7146 23.7657 17.8024C23.7389 17.8698 23.74 17.9428 23.7411 18.0167C23.7413 18.0316 23.7415 18.0464 23.7415 18.0613C23.7415 18.1584 23.7415 18.2474 23.7012 18.3445C23.6742 18.4121 23.6754 18.4853 23.6765 18.5547C23.6767 18.5684 23.6769 18.582 23.6769 18.5953L23.6763 18.603C23.6684 18.6979 23.6599 18.8001 23.6285 18.8947C23.6043 18.9837 23.6043 19.0727 23.6043 19.1697C23.6043 19.2668 23.6043 19.3558 23.5639 19.4448C23.5488 19.4853 23.5494 19.5257 23.55 19.5662C23.5504 19.5905 23.5508 19.6147 23.5478 19.639C23.5451 19.6552 23.5451 19.6723 23.5451 19.6896C23.5451 19.7244 23.5451 19.7604 23.5236 19.7927C23.4862 19.8034 23.4452 19.8 23.4031 19.7964C23.3815 19.7946 23.3597 19.7927 23.3379 19.7927H20.5688C20.367 19.7927 20.3589 19.8008 20.3589 20.0031V25.9983V29.2345C20.3589 29.2428 20.3593 29.2507 20.3596 29.2584C20.3609 29.2888 20.3621 29.3172 20.3428 29.3559H16.6938C16.6696 29.3196 16.6726 29.2788 16.6756 29.2368C16.6766 29.2227 16.6776 29.2084 16.6776 29.1941V24.55V20.0193V19.9222C16.6696 19.8413 16.6211 19.8008 16.5404 19.7927H16.4435H13.6583C13.6442 19.7927 13.6301 19.7937 13.6159 19.7947C13.5735 19.7978 13.5312 19.8008 13.4888 19.7765Z" fill="#69F5DB"/>
</svg>
