<svg width="37" height="38" viewBox="0 0 37 38" fill="none" xmlns="http://www.w3.org/2000/svg">
<path fill-rule="evenodd" clip-rule="evenodd" d="M17.7831 37.3601H19.4309L19.4312 37.3601C19.8099 37.3285 20.1886 37.2969 20.5735 37.2528C23.4902 36.9434 26.1923 36.0028 28.6355 34.3803C32.7327 31.6594 35.3653 27.8969 36.508 23.1053C37.0257 20.9083 37.1078 18.6798 36.7921 16.445C35.7567 9.12193 30.5042 3.17506 23.364 1.26221C20.9713 0.618286 18.5407 0.466774 16.0849 0.820303C11.7351 1.43898 8.06714 3.37076 5.08732 6.59041C2.73882 9.12824 1.2426 12.1143 0.579716 15.5107C0.421886 16.3314 0.314562 17.1584 0.276683 17.998C0.271281 18.0521 0.261257 18.1015 0.250565 18.1541C0.248762 18.163 0.246939 18.172 0.245117 18.1811V19.8288C0.26489 20.0232 0.282942 20.2194 0.30107 20.4164C0.317671 20.5967 0.334335 20.7778 0.352441 20.9588C0.623908 23.5598 1.41305 26.003 2.75145 28.2567C4.98 32.0256 8.15553 34.6834 12.2528 36.2301C13.9636 36.874 15.7377 37.2338 17.5622 37.3285C17.5828 37.3302 17.6034 37.3306 17.6239 37.3309C17.6787 37.3317 17.7326 37.3325 17.7831 37.3601ZM13.7992 20.7444C12.0189 20.2078 11.0719 19.0336 10.9393 17.1397C11.4697 17.4174 11.981 17.5753 12.5745 17.5942C11.659 16.9124 11.1224 16.0475 11.0088 14.9427C10.9267 14.1662 11.1098 13.3645 11.4823 12.7837C13.4267 15.069 15.8889 16.3316 18.9003 16.5526C18.9225 16.428 18.9009 16.316 18.8795 16.2055C18.8706 16.1591 18.8617 16.1131 18.8561 16.0665C18.6541 14.1031 20.144 12.2913 22.1074 12.1271C23.2248 12.0324 24.1907 12.3733 24.9925 13.1498C25.0935 13.2508 25.1882 13.2319 25.2955 13.2067C25.9647 13.0488 26.6023 12.8089 27.2084 12.4743C27.2526 12.4491 27.3031 12.4238 27.3852 12.386C27.1011 13.2193 26.6023 13.838 25.8574 14.343C26.0301 14.3482 26.1682 14.3187 26.3003 14.2905C26.3275 14.2847 26.3544 14.2789 26.3814 14.2736C26.5455 14.2357 26.7097 14.1978 26.8738 14.1536C27.0316 14.1094 27.1958 14.0589 27.3536 14.0021C27.4791 13.9603 27.609 13.9097 27.7611 13.8506C27.7926 13.8383 27.8251 13.8257 27.8587 13.8127C27.5241 14.3114 27.1705 14.7218 26.7665 15.0942C26.5834 15.2647 26.3877 15.4225 26.192 15.574C26.1099 15.6372 26.072 15.7066 26.072 15.8202C26.1162 18.9452 25.0051 21.603 22.7576 23.7683C21.293 25.1761 19.5126 25.9968 17.4987 26.2999C15.5732 26.5903 13.7045 26.4009 11.8989 25.6622C11.3497 25.4413 10.8257 25.1698 10.3333 24.8352C12.2651 24.9868 14.0075 24.5196 15.5985 23.3138C14.6704 23.2633 13.8939 22.954 13.2437 22.3669C12.7765 21.9439 12.4419 21.4325 12.2335 20.8012C12.7639 20.8896 13.2752 20.8896 13.7992 20.7444Z" fill="#69F5DB"/>
</svg>
