<svg width="437" height="672" viewBox="0 0 437 672" fill="none" xmlns="http://www.w3.org/2000/svg">
<g filter="url(#filter0_d_903_3315)">
<mask id="path-1-outside-1_903_3315" maskUnits="userSpaceOnUse" x="51" y="61" width="608" height="542" fill="black">
<rect fill="white" x="51" y="61" width="608" height="542"/>
<path fill-rule="evenodd" clip-rule="evenodd" d="M100.432 86.4664C100.432 99.9788 89.5901 110.933 76.216 110.933C62.8419 110.933 52 99.9788 52 86.4664C52 72.954 62.8419 62 76.216 62C89.5901 62 100.432 72.954 100.432 86.4664ZM218.838 96.6426C218.838 115.771 203.489 131.277 184.558 131.277C165.625 131.277 150.277 115.771 150.277 96.6426C150.277 77.5144 165.625 62.0079 184.558 62.0079C203.489 62.0079 218.838 77.5144 218.838 96.6426ZM422.68 600.104C548.25 585.207 649.245 481.488 657.464 349.476C666.722 200.946 555.047 72.9604 408.038 63.606C390.795 62.5218 373.489 63.1216 356.361 65.3971C321.019 68.3202 291.169 81.9151 291.169 81.9151C267.041 93.8227 251.425 113.782 251.425 140.483C251.425 157.155 257.98 173.144 269.648 184.933C281.316 196.721 297.142 203.344 313.642 203.344C319.392 203.344 339.279 196.987 343.989 195.337C366.381 187.47 390.35 185.319 413.764 189.072C437.179 192.826 459.31 202.369 478.192 216.853C497.073 231.336 512.119 250.312 521.989 272.088C531.859 293.866 536.248 317.771 534.765 341.676C529.777 421.743 461.494 482.59 382.247 477.521C360.025 476.122 338.429 469.521 319.167 458.24C299.906 446.957 283.505 431.303 271.261 412.514C243.995 376.456 248.604 319.918 249.113 313.675C249.14 313.344 249.156 313.154 249.154 313.117C248.669 298.04 242.837 283.641 232.72 272.545C222.605 261.45 208.88 254.396 194.046 252.67C179.213 250.945 164.26 254.663 151.914 263.147C139.567 271.631 130.649 284.314 126.786 298.885C125.379 304.148 124.669 319.57 124.874 321.635C118.948 467.567 229.502 592.267 374.527 601.488C390.587 602.487 406.703 602.023 422.68 600.104ZM184.552 187.522C184.552 212.323 164.652 232.428 140.104 232.428C115.557 232.428 95.6572 212.323 95.6572 187.522C95.6572 162.72 115.557 142.614 140.104 142.614C164.652 142.614 184.552 162.72 184.552 187.522Z"/>
</mask>
<path fill-rule="evenodd" clip-rule="evenodd" d="M100.432 86.4664C100.432 99.9788 89.5901 110.933 76.216 110.933C62.8419 110.933 52 99.9788 52 86.4664C52 72.954 62.8419 62 76.216 62C89.5901 62 100.432 72.954 100.432 86.4664ZM218.838 96.6426C218.838 115.771 203.489 131.277 184.558 131.277C165.625 131.277 150.277 115.771 150.277 96.6426C150.277 77.5144 165.625 62.0079 184.558 62.0079C203.489 62.0079 218.838 77.5144 218.838 96.6426ZM422.68 600.104C548.25 585.207 649.245 481.488 657.464 349.476C666.722 200.946 555.047 72.9604 408.038 63.606C390.795 62.5218 373.489 63.1216 356.361 65.3971C321.019 68.3202 291.169 81.9151 291.169 81.9151C267.041 93.8227 251.425 113.782 251.425 140.483C251.425 157.155 257.98 173.144 269.648 184.933C281.316 196.721 297.142 203.344 313.642 203.344C319.392 203.344 339.279 196.987 343.989 195.337C366.381 187.47 390.35 185.319 413.764 189.072C437.179 192.826 459.31 202.369 478.192 216.853C497.073 231.336 512.119 250.312 521.989 272.088C531.859 293.866 536.248 317.771 534.765 341.676C529.777 421.743 461.494 482.59 382.247 477.521C360.025 476.122 338.429 469.521 319.167 458.24C299.906 446.957 283.505 431.303 271.261 412.514C243.995 376.456 248.604 319.918 249.113 313.675C249.14 313.344 249.156 313.154 249.154 313.117C248.669 298.04 242.837 283.641 232.72 272.545C222.605 261.45 208.88 254.396 194.046 252.67C179.213 250.945 164.26 254.663 151.914 263.147C139.567 271.631 130.649 284.314 126.786 298.885C125.379 304.148 124.669 319.57 124.874 321.635C118.948 467.567 229.502 592.267 374.527 601.488C390.587 602.487 406.703 602.023 422.68 600.104ZM184.552 187.522C184.552 212.323 164.652 232.428 140.104 232.428C115.557 232.428 95.6572 212.323 95.6572 187.522C95.6572 162.72 115.557 142.614 140.104 142.614C164.652 142.614 184.552 162.72 184.552 187.522Z" fill="url(#paint0_linear_903_3315)" shape-rendering="crispEdges"/>
<path d="M657.464 349.476L656.465 349.414V349.414L657.464 349.476ZM422.68 600.104L422.562 599.111L422.561 599.112L422.68 600.104ZM408.038 63.606L408.101 62.608L408.101 62.608L408.038 63.606ZM356.361 65.3971L356.443 66.3937L356.468 66.3916L356.492 66.3884L356.361 65.3971ZM291.169 81.9151L290.755 81.005L290.741 81.0115L290.727 81.0184L291.169 81.9151ZM269.648 184.933L270.359 184.229L269.648 184.933ZM343.989 195.337L344.32 196.28L344.321 196.28L343.989 195.337ZM413.764 189.072L413.922 188.084L413.922 188.084L413.764 189.072ZM478.192 216.853L478.801 216.059L478.801 216.059L478.192 216.853ZM521.989 272.088L522.9 271.676V271.676L521.989 272.088ZM534.765 341.676L535.763 341.738V341.738L534.765 341.676ZM382.247 477.521L382.311 476.523L382.31 476.523L382.247 477.521ZM319.167 458.24L318.662 459.102L318.662 459.102L319.167 458.24ZM271.261 412.514L272.099 411.968L272.08 411.939L272.059 411.911L271.261 412.514ZM249.113 313.675L250.11 313.756L249.113 313.675ZM249.154 313.117L248.155 313.149L248.155 313.156L249.154 313.117ZM232.72 272.545L231.981 273.219L231.981 273.219L232.72 272.545ZM194.046 252.67L194.162 251.677H194.162L194.046 252.67ZM151.914 263.147L152.48 263.971L152.48 263.971L151.914 263.147ZM126.786 298.885L127.752 299.144L127.752 299.142L126.786 298.885ZM124.874 321.635L125.873 321.675L125.876 321.605L125.869 321.536L124.874 321.635ZM374.527 601.488L374.464 602.486L374.465 602.486L374.527 601.488ZM76.216 111.933C90.1521 111.933 101.432 100.521 101.432 86.4664H99.4319C99.4319 99.4363 89.0281 109.933 76.216 109.933V111.933ZM51 86.4664C51 100.521 62.2799 111.933 76.216 111.933V109.933C63.4038 109.933 53 99.4363 53 86.4664H51ZM76.216 61C62.2799 61 51 72.4114 51 86.4664H53C53 73.4965 63.4038 63 76.216 63V61ZM101.432 86.4664C101.432 72.4114 90.152 61 76.216 61V63C89.0281 63 99.4319 73.4965 99.4319 86.4664H101.432ZM184.558 132.277C204.051 132.277 219.838 116.314 219.838 96.6426H217.838C217.838 115.228 202.927 130.277 184.558 130.277V132.277ZM149.277 96.6426C149.277 116.314 165.063 132.277 184.558 132.277V130.277C166.187 130.277 151.277 115.229 151.277 96.6426H149.277ZM184.558 61.0079C165.063 61.0079 149.277 76.9718 149.277 96.6426H151.277C151.277 78.057 166.187 63.0079 184.558 63.0079V61.0079ZM219.838 96.6426C219.838 76.9718 204.051 61.0079 184.558 61.0079V63.0079C202.927 63.0079 217.838 78.057 217.838 96.6426H219.838ZM656.465 349.414C648.277 480.941 547.654 584.27 422.562 599.111L422.798 601.097C548.845 586.143 650.213 482.034 658.462 349.538L656.465 349.414ZM407.974 64.604C554.424 73.9227 665.69 201.425 656.465 349.414L658.462 349.538C667.754 200.467 555.671 71.998 408.101 62.608L407.974 64.604ZM356.492 66.3884C373.557 64.1214 390.797 63.5239 407.975 64.6041L408.101 62.608C390.793 61.5197 373.422 62.1217 356.229 64.4058L356.492 66.3884ZM291.169 81.9151C291.584 82.8252 291.584 82.8252 291.584 82.8251C291.584 82.8251 291.584 82.825 291.585 82.8248C291.585 82.8245 291.586 82.824 291.588 82.8233C291.591 82.8218 291.596 82.8195 291.603 82.8165C291.617 82.8103 291.637 82.801 291.665 82.7885C291.721 82.7634 291.805 82.7259 291.917 82.6766C292.14 82.5779 292.475 82.4321 292.913 82.2451C293.79 81.871 295.086 81.3321 296.752 80.6756C300.085 79.3625 304.899 77.5798 310.814 75.7056C322.649 71.9557 338.87 67.8472 356.443 66.3937L356.278 64.4005C338.509 65.8701 322.135 70.0206 310.21 73.799C304.245 75.6889 299.388 77.4875 296.019 78.8148C294.334 79.4785 293.022 80.0245 292.129 80.4054C291.682 80.5958 291.34 80.7449 291.109 80.8468C290.994 80.8978 290.906 80.9369 290.847 80.9636C290.817 80.9769 290.795 80.987 290.779 80.994C290.772 80.9975 290.766 81.0001 290.762 81.002C290.76 81.0029 290.758 81.0036 290.757 81.0041C290.756 81.0044 290.756 81.0046 290.755 81.0047C290.755 81.0049 290.755 81.005 291.169 81.9151ZM252.425 140.483C252.425 114.25 267.74 94.593 291.612 82.8118L290.727 81.0184C266.343 93.0523 250.425 113.315 250.425 140.483H252.425ZM270.359 184.229C258.877 172.629 252.425 156.893 252.425 140.483H250.425C250.425 157.417 257.083 173.66 268.937 185.636L270.359 184.229ZM313.642 202.344C297.411 202.344 281.84 195.829 270.359 184.229L268.937 185.636C280.792 197.613 296.873 204.344 313.642 204.344V202.344ZM343.659 194.393C341.324 195.211 335.193 197.207 328.931 198.998C325.8 199.893 322.648 200.734 319.927 201.35C317.177 201.972 314.955 202.344 313.642 202.344V204.344C315.205 204.344 317.625 203.921 320.368 203.3C323.14 202.673 326.332 201.821 329.481 200.921C335.777 199.12 341.945 197.113 344.32 196.28L343.659 194.393ZM413.922 188.084C390.344 184.305 366.206 186.472 343.658 194.393L344.321 196.28C366.555 188.469 390.357 186.332 413.606 190.059L413.922 188.084ZM478.801 216.059C459.788 201.475 437.501 191.865 413.922 188.084L413.606 190.059C436.856 193.787 458.833 203.263 477.584 217.646L478.801 216.059ZM522.9 271.676C512.962 249.75 497.813 230.644 478.801 216.059L477.584 217.646C496.333 232.029 511.276 250.874 521.078 272.501L522.9 271.676ZM535.763 341.738C537.256 317.67 532.837 293.602 522.9 271.676L521.078 272.501C530.88 294.13 535.24 317.871 533.767 341.614L535.763 341.738ZM382.183 478.519C461.992 483.624 530.741 422.347 535.763 341.738L533.767 341.614C528.812 421.139 460.996 481.556 382.311 476.523L382.183 478.519ZM318.662 459.102C338.058 470.463 359.806 477.111 382.184 478.519L382.31 476.523C360.244 475.134 338.8 468.579 319.673 457.377L318.662 459.102ZM270.423 413.06C282.751 431.979 299.266 447.741 318.662 459.102L319.673 457.377C300.546 446.173 284.258 430.628 272.099 411.968L270.423 413.06ZM248.116 313.594C247.86 316.739 246.575 332.509 248.778 352.026C250.979 371.524 256.674 394.881 270.463 413.117L272.059 411.911C258.583 394.089 252.949 371.148 250.765 351.802C248.584 332.475 249.857 316.855 250.11 313.756L248.116 313.594ZM248.155 313.156C248.154 313.136 248.154 313.12 248.154 313.114C248.154 313.108 248.154 313.103 248.155 313.102C248.155 313.101 248.154 313.104 248.154 313.114C248.153 313.134 248.151 313.165 248.147 313.21C248.14 313.3 248.13 313.427 248.116 313.594L250.11 313.756C250.123 313.592 250.134 313.458 250.141 313.361C250.146 313.303 250.157 313.169 250.153 313.077L248.155 313.156ZM231.981 273.219C241.937 284.137 247.677 298.309 248.155 313.149L250.154 313.085C249.661 297.771 243.737 283.144 233.459 271.871L231.981 273.219ZM193.931 253.663C208.523 255.361 222.028 262.3 231.981 273.219L233.459 271.871C223.183 260.599 209.236 253.431 194.162 251.677L193.931 253.663ZM152.48 263.971C164.628 255.624 179.339 251.967 193.931 253.663L194.162 251.677C179.088 249.924 163.892 253.703 151.347 262.323L152.48 263.971ZM127.752 299.142C131.555 284.8 140.332 272.319 152.48 263.971L151.347 262.323C138.803 270.943 129.743 283.828 125.819 298.629L127.752 299.142ZM125.869 321.536C125.826 321.099 125.827 319.82 125.888 317.982C125.947 316.176 126.06 313.902 126.223 311.528C126.552 306.741 127.078 301.666 127.752 299.144L125.82 298.627C125.087 301.367 124.555 306.634 124.228 311.391C124.063 313.787 123.949 316.085 123.889 317.916C123.83 319.715 123.82 321.138 123.879 321.733L125.869 321.536ZM374.591 600.49C230.119 591.304 119.969 467.075 125.873 321.675L123.875 321.594C117.927 468.058 228.886 593.23 374.464 602.486L374.591 600.49ZM422.561 599.112C406.644 601.023 390.588 601.485 374.589 600.49L374.465 602.486C390.585 603.489 406.762 603.023 422.799 601.097L422.561 599.112ZM140.104 233.428C165.214 233.428 185.552 212.866 185.552 187.522H183.552C183.552 211.781 164.09 231.428 140.104 231.428V233.428ZM94.6572 187.522C94.6572 212.866 114.995 233.428 140.104 233.428V231.428C116.119 231.428 96.6572 211.781 96.6572 187.522H94.6572ZM140.104 141.614C114.995 141.614 94.6572 162.177 94.6572 187.522H96.6572C96.6572 163.262 116.119 143.614 140.104 143.614V141.614ZM185.552 187.522C185.552 162.177 165.214 141.614 140.104 141.614V143.614C164.09 143.614 183.552 163.262 183.552 187.522H185.552Z" fill="url(#paint1_linear_903_3315)" fill-opacity="0.7" mask="url(#path-1-outside-1_903_3315)"/>
</g>
<defs>
<filter id="filter0_d_903_3315" x="0" y="0" width="738" height="672" filterUnits="userSpaceOnUse" color-interpolation-filters="sRGB">
<feFlood flood-opacity="0" result="BackgroundImageFix"/>
<feColorMatrix in="SourceAlpha" type="matrix" values="0 0 0 0 0 0 0 0 0 0 0 0 0 0 0 0 0 0 127 0" result="hardAlpha"/>
<feOffset dx="14" dy="4"/>
<feGaussianBlur stdDeviation="32.5"/>
<feComposite in2="hardAlpha" operator="out"/>
<feColorMatrix type="matrix" values="0 0 0 0 0 0 0 0 0 0 0 0 0 0 0 0 0 0 0.15 0"/>
<feBlend mode="normal" in2="BackgroundImageFix" result="effect1_dropShadow_903_3315"/>
<feBlend mode="normal" in="SourceGraphic" in2="effect1_dropShadow_903_3315" result="shape"/>
</filter>
<linearGradient id="paint0_linear_903_3315" x1="355" y1="62" x2="355" y2="602" gradientUnits="userSpaceOnUse">
<stop stop-color="#5F45BA"/>
<stop offset="1" stop-color="#A76CFF"/>
</linearGradient>
<linearGradient id="paint1_linear_903_3315" x1="355" y1="62" x2="355" y2="602" gradientUnits="userSpaceOnUse">
<stop/>
<stop offset="1" stop-opacity="0"/>
</linearGradient>
</defs>
</svg>
